<svg width="30" height="50" viewBox="0 0 30 50" fill="none" xmlns="http://www.w3.org/2000/svg">
<path d="M15 23.3669V49.1479" stroke="#552D83" stroke-width="2"/>
<path d="M15 29.5C11.126 29.5 7.48631 27.9924 4.74695 25.253C2.0076 22.5137 0.5 18.874 0.5 15C0.5 11.126 2.0076 7.48631 4.74695 4.74695C7.48631 2.0076 11.126 0.5 15 0.5C18.874 0.5 22.5137 2.0076 25.253 4.74695C27.9924 7.48631 29.5 11.126 29.5 15C29.5 18.874 27.9924 22.5137 25.253 25.253C22.5137 27.9924 18.874 29.5 15 29.5Z" fill="#552D83" stroke="white"/>
<path d="M15.0036 8C12.2486 8 10 10.2485 10 13.0036V13.267L10.0202 13.6721C10.1012 14.0975 10.2836 14.8268 10.6888 15.8599C11.2965 17.3589 12.5321 19.7696 15.024 22.9501C16.1989 21.3295 19.6226 16.427 19.9263 13.8544V13.8342C19.9669 13.5708 19.9871 13.2872 19.9871 13.0036C20.0072 10.2487 17.7587 8.00002 15.0037 8.00002L15.0036 8ZM14.9834 15.2318C13.768 15.2318 12.7754 14.2392 12.7754 13.0238C12.7754 11.8084 13.768 10.8158 14.9834 10.8158C16.1988 10.8158 17.1914 11.8084 17.1914 13.0238C17.1914 14.2392 16.1988 15.2318 14.9834 15.2318Z" fill="white"/>
</svg>
